<svg xmlns="http://www.w3.org/2000/svg" viewBox="0 0 400 240" preserveAspectRatio="xMidYMid slice">
  <defs>
    <linearGradient id="ny-sky" x1="0" y1="0" x2="0" y2="1">
      <stop offset="0%" stop-color="#2b1b54"/>
      <stop offset="45%" stop-color="#c9577a"/>
      <stop offset="80%" stop-color="#f5b06a"/>
      <stop offset="100%" stop-color="#fde0a6"/>
    </linearGradient>
    <linearGradient id="ny-water" x1="0" y1="0" x2="0" y2="1">
      <stop offset="0%" stop-color="#5a3f6e"/>
      <stop offset="100%" stop-color="#2a1f3a"/>
    </linearGradient>
  </defs>
  <rect width="400" height="240" fill="url(#ny-sky)"/>
  <circle cx="305" cy="160" r="22" fill="#fff3c4" opacity="0.95"/>
  <circle cx="305" cy="160" r="36" fill="#fff3c4" opacity="0.2"/>
  <g fill="#13182b">
    <rect x="-2" y="155" width="36" height="85"/>
    <rect x="32" y="120" width="30" height="120"/>
    <rect x="60" y="138" width="26" height="102"/>
    <rect x="84" y="98" width="40" height="142"/>
    <polygon points="104,98 104,80 110,72 116,80 116,98"/>
    <rect x="122" y="118" width="22" height="122"/>
    <rect x="142" y="78" width="30" height="162"/>
    <rect x="170" y="108" width="38" height="132"/>
    <rect x="206" y="128" width="26" height="112"/>
    <rect x="230" y="92" width="44" height="148"/>
    <polygon points="252,92 252,72 260,62 268,72 268,92"/>
    <rect x="272" y="118" width="28" height="122"/>
    <rect x="298" y="142" width="22" height="98"/>
    <rect x="318" y="108" width="36" height="132"/>
    <rect x="352" y="138" width="28" height="102"/>
    <rect x="378" y="160" width="24" height="80"/>
  </g>
  <g fill="#f7c98f" opacity="0.85">
    <rect x="6" y="172" width="3" height="4"/>
    <rect x="18" y="186" width="3" height="4"/>
    <rect x="42" y="138" width="3" height="4"/>
    <rect x="42" y="156" width="3" height="4"/>
    <rect x="54" y="172" width="3" height="4"/>
    <rect x="68" y="156" width="3" height="4"/>
    <rect x="92" y="116" width="3" height="4"/>
    <rect x="104" y="138" width="3" height="4"/>
    <rect x="116" y="162" width="3" height="4"/>
    <rect x="148" y="96" width="3" height="4"/>
    <rect x="160" y="118" width="3" height="4"/>
    <rect x="148" y="148" width="3" height="4"/>
    <rect x="180" y="128" width="3" height="4"/>
    <rect x="192" y="152" width="3" height="4"/>
    <rect x="216" y="148" width="3" height="4"/>
    <rect x="240" y="112" width="3" height="4"/>
    <rect x="256" y="136" width="3" height="4"/>
    <rect x="240" y="168" width="3" height="4"/>
    <rect x="280" y="138" width="3" height="4"/>
    <rect x="288" y="170" width="3" height="4"/>
    <rect x="326" y="128" width="3" height="4"/>
    <rect x="338" y="160" width="3" height="4"/>
    <rect x="360" y="158" width="3" height="4"/>
    <rect x="384" y="184" width="3" height="4"/>
  </g>
  <rect y="220" width="400" height="20" fill="url(#ny-water)"/>
  <g stroke="#f5b06a" stroke-width="0.6" opacity="0.4">
    <line x1="6" y1="226" x2="60" y2="226"/>
    <line x1="80" y1="230" x2="160" y2="230"/>
    <line x1="200" y1="226" x2="280" y2="226"/>
    <line x1="300" y1="232" x2="394" y2="232"/>
  </g>
</svg>
